<svg version="1.0" xmlns="http://www.w3.org/2000/svg" width="1218.000000pt" height="1280.000000pt"
    viewBox="0 0 1218.000000 1280.000000" preserveAspectRatio="xMidYMid meet">
    <g transform="translate(0.000000,1280.000000) scale(0.100000,-0.100000)" fill="#ff5722" stroke="none">
        <path d="M2150 12684 c-921 -836 -1544 -1819 -1894 -2984 -47 -158 -123 -471
-146 -605 -49 -280 -70 -429 -85 -595 -3 -36 -8 -83 -11 -106 -5 -37 -3 -42
18 -48 l23 -7 -21 -11 c-21 -10 -22 -20 -29 -177 -15 -319 6 -782 50 -1111
245 -1832 1266 -3466 2810 -4497 265 -177 613 -371 885 -494 125 -56 494 -208
522 -214 10 -2 79 -24 155 -49 249 -82 640 -183 653 -169 5 4 23 46 41 93 53
137 211 443 306 595 298 474 680 874 1133 1184 63 43 110 69 119 66 9 -3 12
-3 9 1 -22 21 327 213 590 323 66 28 124 51 128 51 4 0 -59 -41 -142 -91 -622
-378 -1141 -935 -1475 -1584 -281 -544 -423 -1093 -445 -1725 -5 -152 8 -516
20 -527 5 -5 173 50 305 99 714 265 1364 756 1817 1371 54 74 80 100 119 121
177 93 599 468 844 750 308 354 544 735 667 1076 20 58 44 111 53 117 18 15
61 17 61 3 0 -22 -75 -202 -144 -345 -263 -547 -699 -1071 -1231 -1479 -129
-100 -127 -97 -54 -79 559 134 671 170 799 257 629 428 1146 1068 1434 1777
43 104 50 117 80 127 18 7 37 12 43 12 25 0 -169 -422 -283 -617 -288 -492
-684 -922 -1161 -1262 -57 -41 -103 -75 -103 -76 0 -5 285 108 405 161 190 83
493 240 700 365 476 286 905 625 1295 1025 450 462 663 766 998 1429 138 274
179 417 169 585 -24 363 -260 647 -622 748 -56 15 -380 17 -4345 22 l-4285 6
-115 22 c-63 12 -164 36 -225 52 -819 219 -1470 870 -1689 1689 -18 65 -21 91
-12 91 6 0 52 -9 101 -19 355 -77 860 -100 1230 -56 487 58 891 175 1310 380
372 182 663 381 965 657 112 102 316 315 309 322 -10 8 -153 62 -273 101 -627
209 -1327 256 -1991 134 -536 -98 -1076 -323 -1535 -637 -89 -60 -91 -61 -40
-17 120 104 411 407 513 535 191 237 357 502 486 772 179 374 289 735 356
1169 33 214 46 671 25 895 -20 215 -65 495 -79 494 -3 -1 -53 -44 -111 -96z" />
        <path d="M8839 9301 c-58 -36 -84 -87 -84 -162 1 -105 78 -179 185 -179 101 0
178 70 188 170 14 152 -158 255 -289 171z" />
        <path d="M8467 8506 c-105 -44 -167 -107 -208 -215 -17 -45 -20 -72 -17 -141
3 -73 9 -94 38 -148 68 -128 180 -195 325 -196 70 0 90 4 148 31 240 113 289
419 96 597 -75 70 -143 96 -247 96 -58 0 -91 -6 -135 -24z" />
        <path d="M9597 8099 c-131 -32 -210 -132 -209 -264 1 -177 168 -299 339 -250
104 30 193 148 193 255 0 53 -30 127 -70 173 -65 74 -165 108 -253 86z" />
        <path d="M8527 7445 c-50 -17 -85 -50 -108 -100 -36 -78 -14 -165 57 -223 72
-60 176 -52 245 17 101 101 57 273 -79 311 -48 13 -68 12 -115 -5z" />
        <path d="M9160 6993 c-63 -23 -152 -114 -173 -177 -52 -152 17 -313 162 -380
67 -31 179 -29 245 4 110 56 169 149 170 270 1 122 -55 214 -167 272 -56 29
-174 34 -237 11z" />
    </g>
</svg>